Coordinates
version=1
nRows=22
nColumns=24
inDegrees=yes

Units are S.I. units (second, meters, Newtons, ...)
Angles are in degrees.

endheader
time	pelvis_tilt	pelvis_list	pelvis_rotation	pelvis_tx	pelvis_ty	pelvis_tz	hip_flexion_r	hip_adduction_r	hip_rotation_r	knee_angle_r	ankle_angle_r	subtalar_angle_r	mtp_angle_r	hip_flexion_l	hip_adduction_l	hip_rotation_l	knee_angle_l	ankle_angle_l	subtalar_angle_l	mtp_angle_l	lumbar_extension	lumbar_bending	lumbar_rotation
      1.30833333	      0.63426192	      4.07118843	     -1.16072037	      0.19454366	      1.06701747	      0.33562972	     14.67996822	     -6.37252555	     -3.75646704	    -68.51597923	     -4.65097590	    -14.96660883	     -0.24447705	      7.40595625	      8.10220736	     -5.81966947	    -10.15633486	      3.61109040	      2.35619044	     -1.38118556	      3.60931222	     -2.56675234	     -1.61610142
      1.31250000	      0.59863189	      4.03485113	     -1.26960204	      0.19946777	      1.06746432	      0.33560017	     15.37039122	     -6.23361859	     -3.39084311	    -68.53004543	     -3.87794253	    -14.91283761	     -0.33046214	      7.11423011	      8.06529268	     -5.98298732	    -10.09429000	      3.87616389	      2.33629528	     -1.40142075	      3.63475716	     -2.58217990	     -1.63261244
      1.31666667	      0.56104210	      4.01506191	     -1.36905905	      0.20434369	      1.06787413	      0.33543217	     16.05580502	     -6.12520312	     -3.03365563	    -68.48476485	     -3.27519763	    -14.73263053	     -0.43203534	      6.81317632	      8.06818815	     -6.01236669	     -9.99367559	      4.06187422	      2.38149965	     -1.42976544	      3.64796662	     -2.53421868	     -1.64478385
      1.32083333	      0.53975344	      3.98037322	     -1.44556920	      0.20923477	      1.06831359	      0.33525599	     16.69438124	     -5.99793627	     -2.70964845	    -68.35258561	     -2.74361638	    -14.59523507	     -0.52087400	      6.48963506	      8.05938206	     -6.00428548	     -9.88701829	      4.23208379	      2.38739848	     -1.45815576	      3.63857291	     -2.46390658	     -1.66689770
      1.32500000	      0.54808178	      3.95409522	     -1.50787955	      0.21411102	      1.06878408	      0.33498273	     17.28244645	     -5.88998247	     -2.40951105	    -68.14108610	     -2.42004319	    -14.54567324	     -0.55932467	      6.12045218	      8.07531952	     -5.90084525	     -9.74297155	      4.32759104	      2.42107619	     -1.47114595	      3.57945197	     -2.36603568	     -1.70462664
      1.32916667	      0.54796544	      3.92000479	     -1.60109747	      0.21899837	      1.06923047	      0.33483438	     17.86807858	     -5.74791411	     -2.07612749	    -67.88321903	     -1.85846543	    -14.42250551	     -0.60661880	      5.76277382	      8.07134759	     -5.89040448	     -9.60974916	      4.51333147	      2.38283299	     -1.49033141	      3.55645703	     -2.28550199	     -1.74607210
      1.33333333	      0.53751721	      3.88547325	     -1.67118383	      0.22389188	      1.06964653	      0.33469657	     18.43889137	     -5.60154254	     -1.75938081	    -67.55875817	     -1.29896100	    -14.19982238	     -0.65770928	      5.41581303	      8.06650713	     -5.86171106	     -9.48138680	      4.67992513	      2.34934740	     -1.51478608	      3.53735238	     -2.23387604	     -1.77950427
      1.33750000	      0.50819887	      3.82829259	     -1.69149420	      0.22877018	      1.07004386	      0.33457001	     18.99617701	     -5.43009185	     -1.48533657	    -67.16440568	     -0.63147030	    -13.75788011	     -0.74757983	      5.10270562	      8.03124866	     -5.88080884	     -9.38785145	      4.84928352	      2.26634503	     -1.56462905	      3.52224427	     -2.23042744	     -1.79792953
      1.34166667	      0.51150594	      3.79846179	     -1.74964013	      0.23367092	      1.07045352	      0.33436321	     19.51394775	     -5.29291250	     -1.19535933	    -66.69753517	     -0.32644230	    -13.65067144	     -0.78769079	      4.72219455	      8.04573552	     -5.75392030	     -9.21170218	      4.93133854	      2.27143691	     -1.58722661	      3.49380675	     -2.13304646	     -1.83554365
      1.34583333	      0.50754832	      3.74810552	     -1.78063027	      0.23855440	      1.07085271	      0.33424198	     20.00727591	     -5.12131234	     -0.92412071	    -66.17818894	      0.31235615	    -13.31163032	     -0.86832094	      4.36828653	      8.02383701	     -5.74736177	     -9.08549129	      5.11117884	      2.14726504	     -1.64098867	      3.44873337	     -2.10389676	     -1.87267740
      1.35000000	      0.50403220	      3.71957305	     -1.82890409	      0.24345682	      1.07121412	      0.33406747	     20.49063967	     -4.97471421	     -0.64500681	    -65.58575355	      0.56643305	    -13.22818509	     -0.89801966	      3.98882735	      8.03821730	     -5.61061275	     -8.89745042	      5.17663965	      2.15303471	     -1.66103159	      3.42522395	     -2.02886039	     -1.90775657
      1.35416667	      0.49782780	      3.67924655	     -1.88165056	      0.24840868	      1.07156541	      0.33393573	     20.95012710	     -4.80715304	     -0.36479305	    -64.93977302	      1.02320878	    -13.05241699	     -0.93868380	      3.61064126	      8.03503660	     -5.54738356	     -8.71852248	      5.32484825	      2.06550393	     -1.69307250	      3.43221506	     -1.94985188	     -1.95159544
      1.35833333	      0.49389009	      3.64600821	     -1.91566027	      0.25331612	      1.07189463	      0.33379231	     21.38718730	     -4.65004449	     -0.10432184	    -64.23403549	      1.42303416	    -12.86255210	     -0.97765199	      3.23361316	      8.04047043	     -5.45658078	     -8.54069981	      5.43800826	      1.99689979	     -1.72650030	      3.40833258	     -1.91028684	     -1.99059672
      1.36250000	      0.48565659	      3.60828803	     -1.94148303	      0.25823799	      1.07220275	      0.33365495	     21.80420616	     -4.48716189	      0.14234259	    -63.46579411	      1.79329470	    -12.68550538	     -1.01694139	      2.85869524	      8.04016230	     -5.37610225	     -8.35998038	      5.54743033	      1.91144893	     -1.76241893	      3.38343716	     -1.85852611	     -2.03274290
      1.36666667	      0.48173826	      3.57938462	     -1.96356545	      0.26315110	      1.07248846	      0.33352015	     22.19697838	     -4.33236150	      0.38790460	    -62.64223479	      2.12683311	    -12.54042280	     -1.05619225	      2.47702773	      8.05040143	     -5.28199314	     -8.17454016	      5.64770060	      1.82638921	     -1.79990841	      3.35169360	     -1.82589350	     -2.07458821
      1.37083333	      0.47316886	      3.54745324	     -1.98329416	      0.26807916	      1.07274668	      0.33338675	     22.57109694	     -4.17343884	      0.62038067	    -61.75549032	      2.40602813	    -12.44432704	     -1.09053063	      2.09596337	      8.05623862	     -5.19276444	     -7.97915999	      5.73826212	      1.75096207	     -1.83377559	      3.32270012	     -1.78765154	     -2.11598269
      1.37500000	      0.46045783	      3.52283232	     -2.00270274	      0.27301374	      1.07297097	      0.33325640	     22.92750993	     -4.02241670	      0.85080919	    -60.81430929	      2.66641985	    -12.37186883	     -1.12611044	      1.71790961	      8.07036965	     -5.10315933	     -7.78108148	      5.83351609	      1.66404499	     -1.87001387	      3.30237437	     -1.75582008	     -2.15950696
      1.37916667	      0.43602472	      3.49903139	     -2.01924730	      0.27796403	      1.07315393	      0.33312805	     23.27313829	     -3.87068822	      1.07470115	    -59.81494192	      2.87501039	    -12.34279801	     -1.15689116	      1.34814329	      8.08493690	     -5.01233898	     -7.57607065	      5.91726700	      1.59017100	     -1.90173443	      3.28985079	     -1.72948641	     -2.20077564
      1.38333333	      0.37072175	      3.48662734	     -2.00766752	      0.28282454	      1.07323640	      0.33304965	     23.64822940	     -3.72768144	      1.28616945	    -58.76944361	      3.01165405	    -12.35472707	     -1.17047126	      1.04434169	      8.09857509	     -4.94279596	     -7.41252286	      5.96910433	      1.55860706	     -1.91508005	      3.22258420	     -1.75584561	     -2.22159953
      1.38750000	      0.32836493	      3.47386395	     -2.02912484	      0.28779745	      1.07333573	      0.33298053	     23.96780573	     -3.57912477	      1.51708412	    -57.65960057	      3.15797462	    -12.38966669	     -1.18649373	      0.68911161	      8.11873881	     -4.85884542	     -7.20091834	      6.04630351	      1.51192285	     -1.93084273	      3.23545583	     -1.75573412	     -2.25021214
      1.39166667	      0.35254435	      3.45763916	     -2.08186711	      0.29288676	      1.07351389	      0.33278817	     24.18564778	     -3.44249065	      1.72905278	    -56.49248963	      3.30299941	    -12.47382810	     -1.21843301	      0.23477885	      8.15727919	     -4.77759156	     -6.93484633	      6.17294375	      1.39757442	     -1.96392634	      3.33231451	     -1.67107715	     -2.31062580
      1.39583333	      0.34977868	      3.43568237	     -2.09648314	      0.29790209	      1.07363048	      0.33265326	     24.40499747	     -3.29844305	      1.92120328	    -55.26357025	      3.37979983	    -12.59852401	     -1.25656621	     -0.17402457	      8.17527880	     -4.68525062	     -6.70510829	      6.26468024	      1.28840078	     -2.00375841	      3.32548825	     -1.62936164	     -2.37480487
